<svg id="Layer_1" data-name="Layer 1" xmlns="http://www.w3.org/2000/svg" viewBox="0 0 476.92 216"><defs><style>.cls-1{fill:#b2a167;}.cls-2{fill:#143156;}.cls-3{fill:none;stroke:#b2a167;stroke-miterlimit:10;stroke-width:1.09px;}</style></defs><path class="cls-1" d="M188.56,144.29h0a2.38,2.38,0,0,0,0,4.75,2.38,2.38,0,0,0,0-4.75Zm0,4.38a2,2,0,0,1,0-4h0a2,2,0,0,1,0,4Z"/><path class="cls-1" d="M189,146.74v0a.65.65,0,0,0,.51-.64.64.64,0,0,0-.24-.55,1.43,1.43,0,0,0-.82-.2,3.82,3.82,0,0,0-.75.07V148h.42V146.9h.3a.51.51,0,0,1,.57.47,2,2,0,0,0,.17.67h.45a2.05,2.05,0,0,1-.17-.65C189.38,147,189.22,146.79,189,146.74Zm-.57-.16h-.31v-.9l.31,0c.47,0,.64.23.64.46S188.77,146.58,188.42,146.58Z"/><path class="cls-1" d="M113.59,67h0Z"/><path class="cls-1" d="M124.54,92.91v20.68h11.09l1.17-6.21h5c-1.82,9.46-11.23,16-23.16,16-.81,0-1.64,0-2.46-.09a32.75,32.75,0,0,1-17.1-6c-4.88-3.7-7.44-8.64-7.42-14.3a21.12,21.12,0,0,1,7.28-15.85,27,27,0,0,1,16.78-6.57l1.2,0a34.74,34.74,0,0,1,21.4,7.83,4,4,0,0,0,.45.35l.42.35.18.14h12.73V67H139.17v6.38a49.18,49.18,0,0,0-25.58-7h-.18A44.7,44.7,0,0,0,81.88,79.62c-6.72,6.83-10.36,15.18-10.25,23.52.12,9,4.44,17.32,12.16,23.52a44.61,44.61,0,0,0,27.5,9.33c1.24,0,2.5-.05,3.74-.15,10-.81,18.83-3.09,25.08-6.44l0,2.76H153.8V107.4h4.73v28.72h-7.14V149h31.88V136.12h-7.15V107.38h16.15l1.12,6.21h11.15V92.91ZM113.59,67h0Z"/><path class="cls-2" d="M246.83,75.31a.19.19,0,0,1,.09.18v1.56a.13.13,0,0,1-.13.13h-1.17a.13.13,0,0,1-.13-.13v-.77s0-.08-.05-.1a2.5,2.5,0,0,0-1.37-.36A1.68,1.68,0,0,0,242.24,77a6.31,6.31,0,0,0-.21,2,6.79,6.79,0,0,0,.17,2A1.65,1.65,0,0,0,244,82.19a2.68,2.68,0,0,0,1.44-.31c.11-.06.13-.1.13-.2V80c0-.06,0-.08-.07-.08H244.1a.12.12,0,0,1-.13-.13v-1a.12.12,0,0,1,.13-.13h2.84a.13.13,0,0,1,.13.13v3.73a.3.3,0,0,1-.17.31,4.94,4.94,0,0,1-2.92.83c-1.78,0-2.83-.66-3.29-2.06a7.63,7.63,0,0,1-.22-2.47,7.23,7.23,0,0,1,.25-2.45,3.18,3.18,0,0,1,3.39-2.14A4.36,4.36,0,0,1,246.83,75.31Z"/><path class="cls-2" d="M253.93,78.75a5.68,5.68,0,0,1,.21,1.89.14.14,0,0,1-.15.13h-3.86s-.08,0-.08.07a1.17,1.17,0,0,0,.1.48,1.35,1.35,0,0,0,1.4,1,1.92,1.92,0,0,0,1.47-.59.13.13,0,0,1,.19,0l.77.67a.12.12,0,0,1,0,.19,3.29,3.29,0,0,1-2.57,1.06,2.53,2.53,0,0,1-2.61-1.74,4.82,4.82,0,0,1-.22-1.53,5,5,0,0,1,.2-1.55,2.77,2.77,0,0,1,5.14,0Zm-3.8.31a1.66,1.66,0,0,0-.08.54c0,.05,0,.07.08.07h2.46s.08,0,.08-.07a1.66,1.66,0,0,0-.08-.54,1.35,1.35,0,0,0-2.46,0Z"/><path class="cls-2" d="M260.78,78.75A4.71,4.71,0,0,1,261,80.3a4.64,4.64,0,0,1-.21,1.54,2.79,2.79,0,0,1-5.16,0,4.64,4.64,0,0,1-.21-1.54,4.71,4.71,0,0,1,.21-1.55,2.79,2.79,0,0,1,5.16,0Zm-3.76.39a3.7,3.7,0,0,0-.13,1.16,3.6,3.6,0,0,0,.13,1.15,1.26,1.26,0,0,0,2.36,0,3.6,3.6,0,0,0,.13-1.15,3.7,3.7,0,0,0-.13-1.16,1.15,1.15,0,0,0-1.17-.82A1.17,1.17,0,0,0,257,79.14Z"/><path class="cls-2" d="M266.57,77.14a.12.12,0,0,1,.12.13V78.4c0,.09-.05.16-.15.13a4.36,4.36,0,0,0-.77-.1c-.92,0-1.4.49-1.4,1.61v2s0,.08.08.08h.61a.12.12,0,0,1,.13.13v1a.12.12,0,0,1-.13.13h-2.78a.12.12,0,0,1-.13-.13v-1a.12.12,0,0,1,.13-.13h.55c.06,0,.08,0,.08-.08V78.52c0-.06,0-.08-.08-.08h-.55a.12.12,0,0,1-.13-.13v-1a.13.13,0,0,1,.13-.13h2a.13.13,0,0,1,.13.13v.65h0a1.81,1.81,0,0,1,1.57-.87A2.63,2.63,0,0,1,266.57,77.14Z"/><path class="cls-2" d="M271.62,77.76h0v-.47a.13.13,0,0,1,.13-.13h2a.13.13,0,0,1,.13.13v1a.12.12,0,0,1-.13.13h-.56c-.05,0-.08,0-.08.08V83a2.62,2.62,0,0,1-2.92,2.87,3.12,3.12,0,0,1-2.28-.93.12.12,0,0,1,0-.18l.77-.77a.12.12,0,0,1,.2,0,1.94,1.94,0,0,0,1.36.58c1,0,1.41-.52,1.41-1.49v-.59h0a1.78,1.78,0,0,1-1.62.73,2.1,2.1,0,0,1-2.14-1.52,5,5,0,0,1-.2-1.6,4.82,4.82,0,0,1,.2-1.58A2.09,2.09,0,0,1,270,77,1.79,1.79,0,0,1,271.62,77.76Zm-2.35,1.35a3.17,3.17,0,0,0-.14,1,3.05,3.05,0,0,0,.14,1,1.17,1.17,0,0,0,2.22,0,2.8,2.8,0,0,0,.15-1,2.91,2.91,0,0,0-.15-1,1.17,1.17,0,0,0-2.22,0Z"/><path class="cls-2" d="M277,77.16a.13.13,0,0,1,.13.13v4.79a.07.07,0,0,0,.08.08h.56a.12.12,0,0,1,.13.13v1a.12.12,0,0,1-.13.13H275a.12.12,0,0,1-.13-.13v-1a.12.12,0,0,1,.13-.13h.56c.05,0,.07,0,.07-.08V78.52c0-.06,0-.08-.07-.08H275a.12.12,0,0,1-.13-.13v-1a.13.13,0,0,1,.13-.13Zm0-2.57a.12.12,0,0,1,.13.13v1.13A.12.12,0,0,1,277,76h-1.2a.13.13,0,0,1-.13-.13V74.72a.13.13,0,0,1,.13-.13Z"/><path class="cls-2" d="M284.14,79.2v2.88a.07.07,0,0,0,.08.08h.56a.12.12,0,0,1,.13.13v1a.12.12,0,0,1-.13.13h-1.86a.12.12,0,0,1-.13-.13v-.45h0a2,2,0,0,1-1.75.72,1.88,1.88,0,0,1-2.09-1.92c0-1.37,1-2,2.5-2h1.24c.06,0,.08,0,.08-.08v-.25c0-.71-.27-1.09-1.28-1.09a3.34,3.34,0,0,0-.68.08.08.08,0,0,0-.07.09V79a.12.12,0,0,1-.13.13h-1.13a.13.13,0,0,1-.13-.13V77.63a.17.17,0,0,1,.11-.17,4.94,4.94,0,0,1,2.09-.44C283.45,77,284.14,77.67,284.14,79.2Zm-2.47,1.54c-.92,0-1.34.27-1.34.86s.38.79,1.07.79c.88,0,1.36-.35,1.36-1.07v-.5s0-.08-.08-.08Z"/><path class="cls-2" d="M295.79,74.59a.12.12,0,0,1,.13.13V76.8a.12.12,0,0,1-.13.13h-1.12a.12.12,0,0,1-.13-.13V76a.07.07,0,0,0-.08-.08h-1.32c-.06,0-.08,0-.08.08v6.06s0,.08.08.08h.67a.12.12,0,0,1,.13.13v1a.12.12,0,0,1-.13.13h-3a.12.12,0,0,1-.13-.13v-1a.12.12,0,0,1,.13-.13h.68c.05,0,.07,0,.07-.08V76s0-.08-.07-.08h-1.33A.07.07,0,0,0,290,76v.78a.12.12,0,0,1-.13.13h-1.12a.13.13,0,0,1-.13-.13V74.72a.13.13,0,0,1,.13-.13Z"/><path class="cls-2" d="M301,78.75a5.68,5.68,0,0,1,.21,1.89.13.13,0,0,1-.14.13h-3.87s-.07,0-.07.07a1.17,1.17,0,0,0,.09.48,1.35,1.35,0,0,0,1.4,1,1.92,1.92,0,0,0,1.47-.59c.07-.07.13-.08.19,0l.77.67a.12.12,0,0,1,0,.19,3.33,3.33,0,0,1-2.58,1.06,2.53,2.53,0,0,1-2.61-1.74,4.82,4.82,0,0,1-.22-1.53,4.71,4.71,0,0,1,.21-1.55,2.77,2.77,0,0,1,5.13,0Zm-3.8.31a1.69,1.69,0,0,0-.07.54c0,.05,0,.07.07.07h2.46c.05,0,.08,0,.08-.07a1.66,1.66,0,0,0-.08-.54,1.35,1.35,0,0,0-2.46,0Z"/><path class="cls-2" d="M307.45,77.52a.15.15,0,0,1,.1.16v1.43a.12.12,0,0,1-.13.13h-1.1a.12.12,0,0,1-.13-.13v-.57c0-.05,0-.06-.07-.09a2.28,2.28,0,0,0-.79-.13,1.22,1.22,0,0,0-1.29.82,3.82,3.82,0,0,0-.13,1.16,3.93,3.93,0,0,0,.13,1.17,1.23,1.23,0,0,0,1.29.8,2.12,2.12,0,0,0,.79-.11c.06,0,.07,0,.07-.09v-.59a.12.12,0,0,1,.13-.13h1.1a.12.12,0,0,1,.13.13v1.44a.16.16,0,0,1-.1.17,4.63,4.63,0,0,1-2.16.48,2.51,2.51,0,0,1-2.66-1.69,5.15,5.15,0,0,1-.2-1.58,4.9,4.9,0,0,1,.2-1.55A2.57,2.57,0,0,1,305.29,77,4.48,4.48,0,0,1,307.45,77.52Z"/><path class="cls-2" d="M310.91,74.59a.12.12,0,0,1,.13.13v3h0a1.91,1.91,0,0,1,1.63-.73,2.14,2.14,0,0,1,2.15,2.33v2.73a.07.07,0,0,0,.08.08h.53a.12.12,0,0,1,.13.13v1a.12.12,0,0,1-.13.13h-2.7a.12.12,0,0,1-.13-.13v-1a.12.12,0,0,1,.13-.13h.56a.07.07,0,0,0,.08-.08V79.69c0-.81-.39-1.37-1.17-1.37s-1.17.56-1.17,1.37v2.39s0,.08.08.08h.55a.13.13,0,0,1,.14.13v1a.13.13,0,0,1-.14.13h-2.73a.12.12,0,0,1-.12-.13v-1a.12.12,0,0,1,.12-.13h.56c.06,0,.08,0,.08-.08V75.94s0-.08-.08-.08h-.56a.12.12,0,0,1-.12-.13v-1a.12.12,0,0,1,.12-.13Z"/><path class="cls-2" d="M251.36,98.3c-.47-2.18-1.64-3.17-3.62-3.17-2.39,0-3.69,1.56-3.69,5.44v2.28c0,3.83,1.3,5.44,3.69,5.44,2.06,0,3.15-1,3.62-3.17h2.88c-.6,4-2.94,5.79-6.5,5.79-4,0-6.71-2.41-6.71-8.06v-2.28c0-5.65,2.71-8.06,6.71-8.06,3.56,0,5.93,1.89,6.53,5.79Z"/><path class="cls-2" d="M267.5,105c0,3.45-1.69,5.92-5.51,5.92-3.64,0-5.54-2.34-5.54-5.92v-1.64c0-3.82,2-5.9,5.54-5.9s5.51,2.08,5.51,5.9Zm-2.76-.08V103.4c0-2.26-.91-3.54-2.75-3.54s-2.78,1.3-2.78,3.54v1.51c0,2,.67,3.61,2.78,3.61S264.74,106.94,264.74,104.91Z"/><path class="cls-2" d="M270.39,92.74h2.78V106c0,1.4.26,2.29,2,2.29v2.44c-3.38,0-4.76-1.09-4.76-4.08Z"/><path class="cls-2" d="M278.19,92.74H281V106c0,1.4.26,2.29,2,2.29v2.44c-3.37,0-4.75-1.09-4.75-4.08Z"/><path class="cls-2" d="M295.79,108.7c-.91,1.59-2.37,2.21-4.65,2.21-3.72,0-5.7-2.41-5.7-5.87v-1.77c0-3.82,1.87-5.82,5.28-5.82s5.25,2.13,5.25,6v1.43H288.2v0c0,2,.78,3.61,2.83,3.61a2.7,2.7,0,0,0,2.68-1.27Zm-7.57-6h5c-.1-1.89-.88-2.86-2.47-2.86S288.35,101,288.22,102.72Z"/><path class="cls-2" d="M306.86,97.68h2.76v12.74c0,4-2.29,5.36-5.67,5.36-2.34,0-3.79-.6-4.83-2.27l1.95-1.4a3,3,0,0,0,2.8,1.3c2.08,0,3-.88,3-3v-.6a4.13,4.13,0,0,1-3.12,1.09c-3.45,0-5.17-2.47-5.17-5.87v-1.77c0-3.74,2-5.82,5.17-5.82a4.1,4.1,0,0,1,3.12,1.14Zm0,7.23V103.4c0-2.24-.91-3.54-2.75-3.54s-2.78,1.28-2.78,3.54v1.51c0,2,.78,3.61,2.78,3.61S306.86,106.94,306.86,104.91Z"/><path class="cls-2" d="M322.88,108.7c-.91,1.59-2.36,2.21-4.65,2.21-3.72,0-5.7-2.41-5.7-5.87v-1.77c0-3.82,1.87-5.82,5.28-5.82s5.25,2.13,5.25,6v1.43h-7.77v0c0,2,.78,3.61,2.83,3.61a2.7,2.7,0,0,0,2.68-1.27Zm-7.56-6h5c-.1-1.89-.88-2.86-2.47-2.86S315.44,101,315.32,102.72Z"/><path class="cls-2" d="M343.68,105c0,3.45-1.69,5.92-5.51,5.92-3.64,0-5.54-2.34-5.54-5.92v-1.64c0-3.82,2-5.9,5.54-5.9s5.51,2.08,5.51,5.9Zm-2.75-.08V103.4c0-2.26-.91-3.54-2.76-3.54s-2.78,1.3-2.78,3.54v1.51c0,2,.67,3.61,2.78,3.61S340.93,106.94,340.93,104.91Z"/><path class="cls-2" d="M347.19,97.68v-.81c0-3.06,1.12-4.13,4.24-4.13h.8v2.5h-.59c-1.46,0-1.69.65-1.69,2.15v.29h2.28v2.39H350v10.61h-2.76V100.07h-1.66V97.68Z"/><path class="cls-2" d="M252.76,120v2.63h-8v4.73H252V130h-7.2v5.38h8v2.6h-11V120Z"/><path class="cls-2" d="M255.59,124.93h2.73v1.17a3.68,3.68,0,0,1,3.23-1.4c2.68,0,4.73,1.35,4.73,5.09v8.14h-2.76V130.1c0-2.28-1-2.93-2.47-2.93a2.6,2.6,0,0,0-2.68,2.91v7.85h-2.78Z"/><path class="cls-2" d="M277.48,124.93h2.76v12.74c0,4-2.29,5.36-5.67,5.36-2.34,0-3.79-.6-4.83-2.27l1.95-1.4a3,3,0,0,0,2.8,1.3c2.08,0,3-.88,3-3v-.6a4.13,4.13,0,0,1-3.12,1.09c-3.45,0-5.17-2.47-5.17-5.87v-1.77c0-3.74,2-5.82,5.17-5.82a4.1,4.1,0,0,1,3.12,1.14Zm0,7.23v-1.51c0-2.24-.91-3.54-2.75-3.54s-2.78,1.28-2.78,3.54v1.51c0,2,.78,3.61,2.78,3.61S277.48,134.19,277.48,132.16Z"/><path class="cls-2" d="M284,120h3v2.83h-3Zm.13,4.94h2.78v13h-2.78Z"/><path class="cls-2" d="M290.69,124.93h2.73v1.17a3.66,3.66,0,0,1,3.23-1.4c2.67,0,4.73,1.35,4.73,5.09v8.14h-2.76V130.1c0-2.28-1-2.93-2.47-2.93a2.59,2.59,0,0,0-2.67,2.91v7.85h-2.79Z"/><path class="cls-2" d="M314.64,136c-.91,1.59-2.37,2.21-4.66,2.21-3.71,0-5.69-2.41-5.69-5.87v-1.77c0-3.82,1.87-5.82,5.28-5.82,3.56,0,5.25,2.13,5.25,6v1.43h-7.77v0c0,2,.78,3.61,2.83,3.61a2.71,2.71,0,0,0,2.68-1.27Zm-7.57-6h5c-.1-1.89-.89-2.86-2.47-2.86S307.2,128.21,307.07,130Z"/><path class="cls-2" d="M327.77,136c-.91,1.59-2.37,2.21-4.66,2.21-3.71,0-5.69-2.41-5.69-5.87v-1.77c0-3.82,1.87-5.82,5.28-5.82,3.56,0,5.25,2.13,5.25,6v1.43h-7.77v0c0,2,.78,3.61,2.83,3.61a2.7,2.7,0,0,0,2.68-1.27Zm-7.57-6h5c-.1-1.89-.89-2.86-2.47-2.86S320.33,128.21,320.2,130Z"/><path class="cls-2" d="M338.14,128.18a2.14,2.14,0,0,0-1.87-1c-1.4,0-2.39,1-2.39,2.91v7.85H331.1v-13h2.73v1.17a3.23,3.23,0,0,1,2.91-1.4,3.94,3.94,0,0,1,3.61,1.92Z"/><path class="cls-2" d="M342.3,120h3.05v2.83H342.3Zm.13,4.94h2.79v13h-2.79Z"/><path class="cls-2" d="M349,124.93h2.73v1.17a3.66,3.66,0,0,1,3.22-1.4c2.68,0,4.73,1.35,4.73,5.09v8.14H357V130.1c0-2.28-1-2.93-2.47-2.93a2.59,2.59,0,0,0-2.68,2.91v7.85H349Z"/><path class="cls-2" d="M370.93,124.93h2.76v12.74c0,4-2.29,5.36-5.67,5.36-2.34,0-3.8-.6-4.84-2.27l1.95-1.4a3,3,0,0,0,2.81,1.3c2.08,0,3-.88,3-3v-.6a4.13,4.13,0,0,1-3.12,1.09c-3.46,0-5.18-2.47-5.18-5.87v-1.77c0-3.74,2-5.82,5.18-5.82a4.12,4.12,0,0,1,3.12,1.14Zm0,7.23v-1.51c0-2.24-.91-3.54-2.76-3.54s-2.78,1.28-2.78,3.54v1.51c0,2,.78,3.61,2.78,3.61S370.93,134.19,370.93,132.16Z"/><line class="cls-3" x1="222.63" y1="66.8" x2="222.75" y2="149.02"/></svg>